<svg width="36" height="45" viewBox="0 0 36 45" fill="none" xmlns="http://www.w3.org/2000/svg">
<path fill-rule="evenodd" clip-rule="evenodd" d="M4.16371 0.31879C3.43355 0.537632 2.88123 0.916105 2.05206 1.773C0.493188 3.38637 0.020178 4.64163 0 7.15121C0 8.90432 0.0591261 9.16342 0.651327 10.3784C1.46033 12.0316 3.01919 13.5261 4.53865 14.1035C5.92014 14.6217 8.01208 14.9604 8.93933 14.8206C11.6235 14.3825 12.3339 14.0836 13.9125 12.7691L14.3714 12.384C14.7666 12.0524 15.0781 11.7914 15.1363 11.7332C15.2152 11.6735 14.386 11.5934 13.3006 11.5735C11.1101 11.5337 10.1237 11.3547 8.54469 10.7171C6.76855 10.0198 5.36782 8.86453 4.34156 7.27105L3.94691 6.65337L4.83475 7.37053C5.95955 8.307 8.03179 9.44242 9.29456 9.86068C9.82763 10.0198 11.1894 10.2193 12.3339 10.2789C14.8994 10.4182 16.8726 10.0596 20.7209 8.80484C25.0625 7.39042 26.4041 6.55389 26.7199 5.11958C26.9372 4.1831 26.6411 3.28642 25.9306 2.66921C23.5032 0.617684 19.5764 0.418263 13.1823 2.052C9.35415 3.02779 7.87412 3.16753 6.67001 2.66921C6.27583 2.51005 5.92014 2.41058 5.88072 2.45037C5.62404 2.709 6.86756 3.86479 7.99237 4.42232C9.19601 5.02011 9.41328 5.0599 11.3476 5.0599C12.4916 5.04 14.485 4.88037 15.7872 4.68095C18.0959 4.32284 20.6815 4.34274 21.3526 4.74111C21.5891 4.86047 17.7609 5.59753 13.715 6.19532C11.9393 6.47432 9.31427 6.2749 7.87412 5.75716C5.93985 5.07979 4.4401 3.56589 4.4401 2.27084C4.4401 1.53379 4.95347 0.637579 5.58509 0.298895L6.11722 0H5.62357C5.34764 0 4.69678 0.139263 4.16371 0.31879ZM27.8053 6.15553C27.2328 7.60974 25.7528 8.58553 22.3981 9.74132C19.675 10.6574 18.0762 11.3348 17.1687 11.9122C14.4451 13.6454 13.2809 15.3786 13.2809 17.5898C13.2612 19.4419 13.814 20.4381 15.8857 22.4901C17.0898 23.6852 17.6619 24.3824 17.7609 24.8206C17.82 25.1792 17.82 25.4781 17.721 25.4781C17.3268 25.4781 14.347 23.1077 13.676 22.2712C12.2945 20.5375 12.0378 19.8208 12.0378 17.5699C12.0378 15.8362 11.9984 15.5378 11.7422 15.6174C9.82763 16.1953 7.5386 16.2549 5.78218 15.7969C5.05201 15.6174 4.51894 15.5577 4.40068 15.6775C4.30214 15.777 4.16371 16.8523 4.10505 18.0677C4.00604 19.8805 4.04546 20.4381 4.32185 21.1751L4.65737 22.0718L3.3153 24.5222C0.947429 28.8246 0.76958 29.223 1.00655 29.6015C1.12481 29.8004 1.75643 30.2192 2.42746 30.5578L3.65081 31.1556V32.2712C3.65081 33.1276 3.72965 33.4265 3.96662 33.5259C4.22331 33.6254 4.26225 33.8244 4.18342 34.3625C4.08488 34.9006 4.16371 35.1592 4.46028 35.4581C4.65737 35.6571 4.93329 35.8371 5.05154 35.8371C5.18997 35.8371 5.20968 36.3946 5.13085 37.4703C5.01259 38.9245 5.05201 39.2031 5.42648 39.7809C6.31478 41.2153 8.52498 41.3545 12.2354 40.2594C17.5239 38.6853 20.1682 37.0118 21.392 34.4425C21.826 33.5259 21.9049 33.0679 21.9049 31.6137V29.9004L22.7927 29.1036C24.1348 27.9085 24.8452 26.4742 24.8452 24.8803C24.8649 22.8482 23.9574 21.6933 22.3192 21.6933C21.1747 21.6933 20.3657 22.5696 19.9317 24.2829L19.6947 25.1792L19.438 24.1039C18.8261 21.5536 19.6351 18.5656 21.4314 16.713C22.6942 15.3985 23.9372 14.8405 25.8124 14.7609C27.2333 14.6814 27.4698 14.7411 28.634 15.3189C31.1994 16.5936 32.3045 19.1435 31.6537 22.3309C31.4167 23.4663 30.1539 26.2549 29.5026 27.0715C29.1868 27.4903 29.2262 27.2511 29.7391 25.7769C30.3313 24.1432 30.3707 23.7647 30.3904 21.5739C30.3904 19.2434 30.3707 19.1435 29.7987 18.1871C28.2788 15.6775 24.6679 15.4383 22.4178 17.7291C21.8063 18.3467 21.0368 19.7209 21.0166 20.1993C21.0166 20.3187 21.6285 20.3983 22.4572 20.3983C23.7401 20.3983 23.9964 20.4579 24.6083 20.9364C26.108 22.0917 26.6805 24.462 26.0489 26.793L25.6937 28.0876L26.5031 29.7407C27.0949 30.9562 27.6476 31.6933 28.6148 32.6297C29.3248 33.3265 29.9564 33.8646 29.9958 33.8248C30.0352 33.7851 30.1535 33.0281 30.2722 32.1513C30.5087 30.4584 30.9432 29.4418 33.2323 25.1792C33.8836 23.9841 34.7517 22.0121 35.1468 20.7966C37.2186 14.5018 35.4227 8.46616 30.7851 6.27489C30.0352 5.89642 29.108 5.55774 28.7527 5.47816C28.1605 5.37868 28.1014 5.41847 27.8053 6.15553ZM23.9372 30.06C24.2727 29.8009 24.5688 29.5418 24.5688 29.4423C24.5688 29.0837 24.727 29.3026 25.3778 30.5976C26.207 32.2508 27.8649 34.1034 29.2262 34.8608L30.2328 35.4387L30.3707 36.9521C30.4496 37.7886 30.4895 38.4859 30.4496 38.5257C30.4101 38.5456 29.1868 39.0837 27.7265 39.7213C24.8847 40.9363 21.0762 42.8883 18.9645 44.2033C18.2344 44.6414 17.583 45 17.4845 45C17.3859 45 17.1091 44.4022 16.8726 43.6652C16.6361 42.9281 16.2808 41.9722 16.0636 41.5336C15.6295 40.6175 15.6098 40.4185 15.9256 40.4185C16.0636 40.4185 16.9716 40.0197 17.958 39.5422C20.1879 38.4461 21.7073 36.9919 22.635 35.0801C23.2075 33.9044 23.2864 33.5657 23.2864 32.1314C23.2864 30.5181 23.2864 30.4982 23.9377 30.0595L23.9372 30.06Z" fill="white"/>
</svg>
